G04 #@! TF.GenerationSoftware,KiCad,Pcbnew,5.0.1+dfsg1-3~bpo9+1*
G04 #@! TF.CreationDate,2018-11-18T10:39:03-07:00*
G04 #@! TF.ProjectId,Cube-Balls,437562652D42616C6C732E6B69636164,rev?*
G04 #@! TF.SameCoordinates,Original*
G04 #@! TF.FileFunction,Soldermask,Bot*
G04 #@! TF.FilePolarity,Negative*
%FSLAX46Y46*%
G04 Gerber Fmt 4.6, Leading zero omitted, Abs format (unit mm)*
G04 Created by KiCad (PCBNEW 5.0.1+dfsg1-3~bpo9+1) date Sun 18 Nov 2018 10:39:03 AM MST*
%MOMM*%
%LPD*%
G01*
G04 APERTURE LIST*
%ADD10C,0.100000*%
G04 APERTURE END LIST*
D10*
G36*
X50148518Y-46042344D02*
X50375946Y-46136548D01*
X50580625Y-46273310D01*
X50754690Y-46447375D01*
X50891452Y-46652054D01*
X50985656Y-46879482D01*
X51033680Y-47120917D01*
X51033680Y-47367083D01*
X50985656Y-47608518D01*
X50891452Y-47835946D01*
X50754690Y-48040625D01*
X50580625Y-48214690D01*
X50375946Y-48351452D01*
X50148518Y-48445656D01*
X49907083Y-48493680D01*
X49660917Y-48493680D01*
X49419482Y-48445656D01*
X49192054Y-48351452D01*
X48987375Y-48214690D01*
X48813310Y-48040625D01*
X48676548Y-47835946D01*
X48582344Y-47608518D01*
X48534320Y-47367083D01*
X48534320Y-47120917D01*
X48582344Y-46879482D01*
X48676548Y-46652054D01*
X48813310Y-46447375D01*
X48987375Y-46273310D01*
X49192054Y-46136548D01*
X49419482Y-46042344D01*
X49660917Y-45994320D01*
X49907083Y-45994320D01*
X50148518Y-46042344D01*
X50148518Y-46042344D01*
G37*
G36*
X40750518Y-46042344D02*
X40977946Y-46136548D01*
X41182625Y-46273310D01*
X41356690Y-46447375D01*
X41493452Y-46652054D01*
X41587656Y-46879482D01*
X41635680Y-47120917D01*
X41635680Y-47367083D01*
X41587656Y-47608518D01*
X41493452Y-47835946D01*
X41356690Y-48040625D01*
X41182625Y-48214690D01*
X40977946Y-48351452D01*
X40750518Y-48445656D01*
X40509083Y-48493680D01*
X40262917Y-48493680D01*
X40021482Y-48445656D01*
X39794054Y-48351452D01*
X39589375Y-48214690D01*
X39415310Y-48040625D01*
X39278548Y-47835946D01*
X39184344Y-47608518D01*
X39136320Y-47367083D01*
X39136320Y-47120917D01*
X39184344Y-46879482D01*
X39278548Y-46652054D01*
X39415310Y-46447375D01*
X39589375Y-46273310D01*
X39794054Y-46136548D01*
X40021482Y-46042344D01*
X40262917Y-45994320D01*
X40509083Y-45994320D01*
X40750518Y-46042344D01*
X40750518Y-46042344D01*
G37*
G36*
X64118518Y-46042344D02*
X64345946Y-46136548D01*
X64550625Y-46273310D01*
X64724690Y-46447375D01*
X64861452Y-46652054D01*
X64955656Y-46879482D01*
X65003680Y-47120917D01*
X65003680Y-47367083D01*
X64955656Y-47608518D01*
X64861452Y-47835946D01*
X64724690Y-48040625D01*
X64550625Y-48214690D01*
X64345946Y-48351452D01*
X64118518Y-48445656D01*
X63877083Y-48493680D01*
X63630917Y-48493680D01*
X63389482Y-48445656D01*
X63162054Y-48351452D01*
X62957375Y-48214690D01*
X62783310Y-48040625D01*
X62646548Y-47835946D01*
X62552344Y-47608518D01*
X62504320Y-47367083D01*
X62504320Y-47120917D01*
X62552344Y-46879482D01*
X62646548Y-46652054D01*
X62783310Y-46447375D01*
X62957375Y-46273310D01*
X63162054Y-46136548D01*
X63389482Y-46042344D01*
X63630917Y-45994320D01*
X63877083Y-45994320D01*
X64118518Y-46042344D01*
X64118518Y-46042344D01*
G37*
G36*
X54720518Y-46042344D02*
X54947946Y-46136548D01*
X55152625Y-46273310D01*
X55326690Y-46447375D01*
X55463452Y-46652054D01*
X55557656Y-46879482D01*
X55605680Y-47120917D01*
X55605680Y-47367083D01*
X55557656Y-47608518D01*
X55463452Y-47835946D01*
X55326690Y-48040625D01*
X55152625Y-48214690D01*
X54947946Y-48351452D01*
X54720518Y-48445656D01*
X54479083Y-48493680D01*
X54232917Y-48493680D01*
X53991482Y-48445656D01*
X53764054Y-48351452D01*
X53559375Y-48214690D01*
X53385310Y-48040625D01*
X53248548Y-47835946D01*
X53154344Y-47608518D01*
X53106320Y-47367083D01*
X53106320Y-47120917D01*
X53154344Y-46879482D01*
X53248548Y-46652054D01*
X53385310Y-46447375D01*
X53559375Y-46273310D01*
X53764054Y-46136548D01*
X53991482Y-46042344D01*
X54232917Y-45994320D01*
X54479083Y-45994320D01*
X54720518Y-46042344D01*
X54720518Y-46042344D01*
G37*
G36*
X44059183Y-46570900D02*
X44172089Y-46617668D01*
X44186574Y-46623668D01*
X44292246Y-46694275D01*
X44301225Y-46700275D01*
X44398725Y-46797775D01*
X44475332Y-46912426D01*
X44528100Y-47039817D01*
X44555000Y-47175055D01*
X44555000Y-47312945D01*
X44528100Y-47448183D01*
X44477817Y-47569574D01*
X44475332Y-47575574D01*
X44398726Y-47690224D01*
X44301224Y-47787726D01*
X44229060Y-47835944D01*
X44186574Y-47864332D01*
X44059183Y-47917100D01*
X43923945Y-47944000D01*
X43786055Y-47944000D01*
X43650817Y-47917100D01*
X43523426Y-47864332D01*
X43480940Y-47835944D01*
X43408776Y-47787726D01*
X43311274Y-47690224D01*
X43234668Y-47575574D01*
X43232183Y-47569574D01*
X43181900Y-47448183D01*
X43155000Y-47312945D01*
X43155000Y-47175055D01*
X43181900Y-47039817D01*
X43234668Y-46912426D01*
X43311275Y-46797775D01*
X43408775Y-46700275D01*
X43417755Y-46694275D01*
X43523426Y-46623668D01*
X43537911Y-46617668D01*
X43650817Y-46570900D01*
X43786055Y-46544000D01*
X43923945Y-46544000D01*
X44059183Y-46570900D01*
X44059183Y-46570900D01*
G37*
G36*
X46532224Y-46554128D02*
X46664175Y-46594155D01*
X46785781Y-46659155D01*
X46892370Y-46746630D01*
X46979845Y-46853219D01*
X47044845Y-46974825D01*
X47084872Y-47106776D01*
X47098387Y-47244000D01*
X47084872Y-47381224D01*
X47044845Y-47513175D01*
X46979845Y-47634781D01*
X46892370Y-47741370D01*
X46785781Y-47828845D01*
X46664175Y-47893845D01*
X46532224Y-47933872D01*
X46429390Y-47944000D01*
X46360610Y-47944000D01*
X46257776Y-47933872D01*
X46125825Y-47893845D01*
X46004219Y-47828845D01*
X45897630Y-47741370D01*
X45810155Y-47634781D01*
X45745155Y-47513175D01*
X45705128Y-47381224D01*
X45691613Y-47244000D01*
X45705128Y-47106776D01*
X45745155Y-46974825D01*
X45810155Y-46853219D01*
X45897630Y-46746630D01*
X46004219Y-46659155D01*
X46125825Y-46594155D01*
X46257776Y-46554128D01*
X46360610Y-46544000D01*
X46429390Y-46544000D01*
X46532224Y-46554128D01*
X46532224Y-46554128D01*
G37*
G36*
X60502224Y-46548128D02*
X60634175Y-46588155D01*
X60755781Y-46653155D01*
X60862370Y-46740630D01*
X60949845Y-46847219D01*
X61014845Y-46968825D01*
X61054872Y-47100776D01*
X61068387Y-47238000D01*
X61054872Y-47375224D01*
X61014845Y-47507175D01*
X60949845Y-47628781D01*
X60862370Y-47735370D01*
X60755781Y-47822845D01*
X60634175Y-47887845D01*
X60502224Y-47927872D01*
X60399390Y-47938000D01*
X60330610Y-47938000D01*
X60227776Y-47927872D01*
X60095825Y-47887845D01*
X59974219Y-47822845D01*
X59867630Y-47735370D01*
X59780155Y-47628781D01*
X59715155Y-47507175D01*
X59675128Y-47375224D01*
X59661613Y-47238000D01*
X59675128Y-47100776D01*
X59715155Y-46968825D01*
X59780155Y-46847219D01*
X59867630Y-46740630D01*
X59974219Y-46653155D01*
X60095825Y-46588155D01*
X60227776Y-46548128D01*
X60330610Y-46538000D01*
X60399390Y-46538000D01*
X60502224Y-46548128D01*
X60502224Y-46548128D01*
G37*
G36*
X58029183Y-46564900D02*
X58156574Y-46617668D01*
X58271224Y-46694274D01*
X58368726Y-46791776D01*
X58409781Y-46853220D01*
X58445332Y-46906426D01*
X58498100Y-47033817D01*
X58525000Y-47169055D01*
X58525000Y-47306945D01*
X58498100Y-47442183D01*
X58468692Y-47513178D01*
X58445332Y-47569574D01*
X58368726Y-47684224D01*
X58271224Y-47781726D01*
X58200705Y-47828845D01*
X58156574Y-47858332D01*
X58029183Y-47911100D01*
X57893945Y-47938000D01*
X57756055Y-47938000D01*
X57620817Y-47911100D01*
X57493426Y-47858332D01*
X57449295Y-47828845D01*
X57378776Y-47781726D01*
X57281274Y-47684224D01*
X57204668Y-47569574D01*
X57181308Y-47513178D01*
X57151900Y-47442183D01*
X57125000Y-47306945D01*
X57125000Y-47169055D01*
X57151900Y-47033817D01*
X57204668Y-46906426D01*
X57240219Y-46853220D01*
X57281274Y-46791776D01*
X57378776Y-46694274D01*
X57493426Y-46617668D01*
X57620817Y-46564900D01*
X57756055Y-46538000D01*
X57893945Y-46538000D01*
X58029183Y-46564900D01*
X58029183Y-46564900D01*
G37*
G36*
X43789038Y-42091919D02*
X43970937Y-42167264D01*
X44134641Y-42276648D01*
X44273852Y-42415859D01*
X44383236Y-42579563D01*
X44458581Y-42761462D01*
X44496990Y-42954557D01*
X44496990Y-43151443D01*
X44458581Y-43344538D01*
X44383236Y-43526437D01*
X44273852Y-43690141D01*
X44134641Y-43829352D01*
X43970937Y-43938736D01*
X43789038Y-44014081D01*
X43595943Y-44052490D01*
X43399057Y-44052490D01*
X43205962Y-44014081D01*
X43024063Y-43938736D01*
X42860359Y-43829352D01*
X42721148Y-43690141D01*
X42611764Y-43526437D01*
X42536419Y-43344538D01*
X42498010Y-43151443D01*
X42498010Y-42954557D01*
X42536419Y-42761462D01*
X42611764Y-42579563D01*
X42721148Y-42415859D01*
X42860359Y-42276648D01*
X43024063Y-42167264D01*
X43205962Y-42091919D01*
X43399057Y-42053510D01*
X43595943Y-42053510D01*
X43789038Y-42091919D01*
X43789038Y-42091919D01*
G37*
G36*
X40614038Y-42091919D02*
X40795937Y-42167264D01*
X40959641Y-42276648D01*
X41098852Y-42415859D01*
X41208236Y-42579563D01*
X41283581Y-42761462D01*
X41321990Y-42954557D01*
X41321990Y-43151443D01*
X41283581Y-43344538D01*
X41208236Y-43526437D01*
X41098852Y-43690141D01*
X40959641Y-43829352D01*
X40795937Y-43938736D01*
X40614038Y-44014081D01*
X40420943Y-44052490D01*
X40224057Y-44052490D01*
X40030962Y-44014081D01*
X39849063Y-43938736D01*
X39685359Y-43829352D01*
X39546148Y-43690141D01*
X39436764Y-43526437D01*
X39361419Y-43344538D01*
X39323010Y-43151443D01*
X39323010Y-42954557D01*
X39361419Y-42761462D01*
X39436764Y-42579563D01*
X39546148Y-42415859D01*
X39685359Y-42276648D01*
X39849063Y-42167264D01*
X40030962Y-42091919D01*
X40224057Y-42053510D01*
X40420943Y-42053510D01*
X40614038Y-42091919D01*
X40614038Y-42091919D01*
G37*
G36*
X46964038Y-42091919D02*
X47145937Y-42167264D01*
X47309641Y-42276648D01*
X47448852Y-42415859D01*
X47558236Y-42579563D01*
X47633581Y-42761462D01*
X47671990Y-42954557D01*
X47671990Y-43151443D01*
X47633581Y-43344538D01*
X47558236Y-43526437D01*
X47448852Y-43690141D01*
X47309641Y-43829352D01*
X47145937Y-43938736D01*
X46964038Y-44014081D01*
X46770943Y-44052490D01*
X46574057Y-44052490D01*
X46380962Y-44014081D01*
X46199063Y-43938736D01*
X46035359Y-43829352D01*
X45896148Y-43690141D01*
X45786764Y-43526437D01*
X45711419Y-43344538D01*
X45673010Y-43151443D01*
X45673010Y-42954557D01*
X45711419Y-42761462D01*
X45786764Y-42579563D01*
X45896148Y-42415859D01*
X46035359Y-42276648D01*
X46199063Y-42167264D01*
X46380962Y-42091919D01*
X46574057Y-42053510D01*
X46770943Y-42053510D01*
X46964038Y-42091919D01*
X46964038Y-42091919D01*
G37*
G36*
X50022458Y-42065906D02*
X50043435Y-42067972D01*
X50090535Y-42082260D01*
X50231839Y-42125124D01*
X50405474Y-42217933D01*
X50557666Y-42342834D01*
X50682567Y-42495026D01*
X50775376Y-42668661D01*
X50832528Y-42857066D01*
X50851826Y-43053000D01*
X50832528Y-43248934D01*
X50775376Y-43437339D01*
X50682567Y-43610974D01*
X50557666Y-43763166D01*
X50405474Y-43888067D01*
X50231839Y-43980876D01*
X50090535Y-44023740D01*
X50043435Y-44038028D01*
X50022458Y-44040094D01*
X49896600Y-44052490D01*
X49798400Y-44052490D01*
X49672542Y-44040094D01*
X49651565Y-44038028D01*
X49604465Y-44023740D01*
X49463161Y-43980876D01*
X49289526Y-43888067D01*
X49137334Y-43763166D01*
X49012433Y-43610974D01*
X48919624Y-43437339D01*
X48862472Y-43248934D01*
X48843174Y-43053000D01*
X48862472Y-42857066D01*
X48919624Y-42668661D01*
X49012433Y-42495026D01*
X49137334Y-42342834D01*
X49289526Y-42217933D01*
X49463161Y-42125124D01*
X49604465Y-42082260D01*
X49651565Y-42067972D01*
X49672542Y-42065906D01*
X49798400Y-42053510D01*
X49896600Y-42053510D01*
X50022458Y-42065906D01*
X50022458Y-42065906D01*
G37*
G36*
X57776538Y-42091919D02*
X57958437Y-42167264D01*
X58122141Y-42276648D01*
X58261352Y-42415859D01*
X58370736Y-42579563D01*
X58446081Y-42761462D01*
X58484490Y-42954557D01*
X58484490Y-43151443D01*
X58446081Y-43344538D01*
X58370736Y-43526437D01*
X58261352Y-43690141D01*
X58122141Y-43829352D01*
X57958437Y-43938736D01*
X57776538Y-44014081D01*
X57583443Y-44052490D01*
X57386557Y-44052490D01*
X57193462Y-44014081D01*
X57011563Y-43938736D01*
X56847859Y-43829352D01*
X56708648Y-43690141D01*
X56599264Y-43526437D01*
X56523919Y-43344538D01*
X56485510Y-43151443D01*
X56485510Y-42954557D01*
X56523919Y-42761462D01*
X56599264Y-42579563D01*
X56708648Y-42415859D01*
X56847859Y-42276648D01*
X57011563Y-42167264D01*
X57193462Y-42091919D01*
X57386557Y-42053510D01*
X57583443Y-42053510D01*
X57776538Y-42091919D01*
X57776538Y-42091919D01*
G37*
G36*
X64126538Y-42091919D02*
X64308437Y-42167264D01*
X64472141Y-42276648D01*
X64611352Y-42415859D01*
X64720736Y-42579563D01*
X64796081Y-42761462D01*
X64834490Y-42954557D01*
X64834490Y-43151443D01*
X64796081Y-43344538D01*
X64720736Y-43526437D01*
X64611352Y-43690141D01*
X64472141Y-43829352D01*
X64308437Y-43938736D01*
X64126538Y-44014081D01*
X63933443Y-44052490D01*
X63736557Y-44052490D01*
X63543462Y-44014081D01*
X63361563Y-43938736D01*
X63197859Y-43829352D01*
X63058648Y-43690141D01*
X62949264Y-43526437D01*
X62873919Y-43344538D01*
X62835510Y-43151443D01*
X62835510Y-42954557D01*
X62873919Y-42761462D01*
X62949264Y-42579563D01*
X63058648Y-42415859D01*
X63197859Y-42276648D01*
X63361563Y-42167264D01*
X63543462Y-42091919D01*
X63736557Y-42053510D01*
X63933443Y-42053510D01*
X64126538Y-42091919D01*
X64126538Y-42091919D01*
G37*
G36*
X54484958Y-42065906D02*
X54505935Y-42067972D01*
X54553035Y-42082260D01*
X54694339Y-42125124D01*
X54867974Y-42217933D01*
X55020166Y-42342834D01*
X55145067Y-42495026D01*
X55237876Y-42668661D01*
X55295028Y-42857066D01*
X55314326Y-43053000D01*
X55295028Y-43248934D01*
X55237876Y-43437339D01*
X55145067Y-43610974D01*
X55020166Y-43763166D01*
X54867974Y-43888067D01*
X54694339Y-43980876D01*
X54553035Y-44023740D01*
X54505935Y-44038028D01*
X54484958Y-44040094D01*
X54359100Y-44052490D01*
X54260900Y-44052490D01*
X54135042Y-44040094D01*
X54114065Y-44038028D01*
X54066965Y-44023740D01*
X53925661Y-43980876D01*
X53752026Y-43888067D01*
X53599834Y-43763166D01*
X53474933Y-43610974D01*
X53382124Y-43437339D01*
X53324972Y-43248934D01*
X53305674Y-43053000D01*
X53324972Y-42857066D01*
X53382124Y-42668661D01*
X53474933Y-42495026D01*
X53599834Y-42342834D01*
X53752026Y-42217933D01*
X53925661Y-42125124D01*
X54066965Y-42082260D01*
X54114065Y-42067972D01*
X54135042Y-42065906D01*
X54260900Y-42053510D01*
X54359100Y-42053510D01*
X54484958Y-42065906D01*
X54484958Y-42065906D01*
G37*
G36*
X60951538Y-42091919D02*
X61133437Y-42167264D01*
X61297141Y-42276648D01*
X61436352Y-42415859D01*
X61545736Y-42579563D01*
X61621081Y-42761462D01*
X61659490Y-42954557D01*
X61659490Y-43151443D01*
X61621081Y-43344538D01*
X61545736Y-43526437D01*
X61436352Y-43690141D01*
X61297141Y-43829352D01*
X61133437Y-43938736D01*
X60951538Y-44014081D01*
X60758443Y-44052490D01*
X60561557Y-44052490D01*
X60368462Y-44014081D01*
X60186563Y-43938736D01*
X60022859Y-43829352D01*
X59883648Y-43690141D01*
X59774264Y-43526437D01*
X59698919Y-43344538D01*
X59660510Y-43151443D01*
X59660510Y-42954557D01*
X59698919Y-42761462D01*
X59774264Y-42579563D01*
X59883648Y-42415859D01*
X60022859Y-42276648D01*
X60186563Y-42167264D01*
X60368462Y-42091919D01*
X60561557Y-42053510D01*
X60758443Y-42053510D01*
X60951538Y-42091919D01*
X60951538Y-42091919D01*
G37*
G36*
X43952224Y-39569128D02*
X44084175Y-39609155D01*
X44205781Y-39674155D01*
X44312370Y-39761630D01*
X44399845Y-39868219D01*
X44464845Y-39989825D01*
X44504872Y-40121776D01*
X44518387Y-40259000D01*
X44504872Y-40396224D01*
X44464845Y-40528175D01*
X44399845Y-40649781D01*
X44312370Y-40756370D01*
X44205781Y-40843845D01*
X44084175Y-40908845D01*
X43952224Y-40948872D01*
X43849390Y-40959000D01*
X43780610Y-40959000D01*
X43677776Y-40948872D01*
X43545825Y-40908845D01*
X43424219Y-40843845D01*
X43317630Y-40756370D01*
X43230155Y-40649781D01*
X43165155Y-40528175D01*
X43125128Y-40396224D01*
X43111613Y-40259000D01*
X43125128Y-40121776D01*
X43165155Y-39989825D01*
X43230155Y-39868219D01*
X43317630Y-39761630D01*
X43424219Y-39674155D01*
X43545825Y-39609155D01*
X43677776Y-39569128D01*
X43780610Y-39559000D01*
X43849390Y-39559000D01*
X43952224Y-39569128D01*
X43952224Y-39569128D01*
G37*
G36*
X46492224Y-39569128D02*
X46624175Y-39609155D01*
X46745781Y-39674155D01*
X46852370Y-39761630D01*
X46939845Y-39868219D01*
X47004845Y-39989825D01*
X47044872Y-40121776D01*
X47058387Y-40259000D01*
X47044872Y-40396224D01*
X47004845Y-40528175D01*
X46939845Y-40649781D01*
X46852370Y-40756370D01*
X46745781Y-40843845D01*
X46624175Y-40908845D01*
X46492224Y-40948872D01*
X46389390Y-40959000D01*
X46320610Y-40959000D01*
X46217776Y-40948872D01*
X46085825Y-40908845D01*
X45964219Y-40843845D01*
X45857630Y-40756370D01*
X45770155Y-40649781D01*
X45705155Y-40528175D01*
X45665128Y-40396224D01*
X45651613Y-40259000D01*
X45665128Y-40121776D01*
X45705155Y-39989825D01*
X45770155Y-39868219D01*
X45857630Y-39761630D01*
X45964219Y-39674155D01*
X46085825Y-39609155D01*
X46217776Y-39569128D01*
X46320610Y-39559000D01*
X46389390Y-39559000D01*
X46492224Y-39569128D01*
X46492224Y-39569128D01*
G37*
G36*
X57922224Y-39569128D02*
X58054175Y-39609155D01*
X58175781Y-39674155D01*
X58282370Y-39761630D01*
X58369845Y-39868219D01*
X58434845Y-39989825D01*
X58474872Y-40121776D01*
X58488387Y-40259000D01*
X58474872Y-40396224D01*
X58434845Y-40528175D01*
X58369845Y-40649781D01*
X58282370Y-40756370D01*
X58175781Y-40843845D01*
X58054175Y-40908845D01*
X57922224Y-40948872D01*
X57819390Y-40959000D01*
X57750610Y-40959000D01*
X57647776Y-40948872D01*
X57515825Y-40908845D01*
X57394219Y-40843845D01*
X57287630Y-40756370D01*
X57200155Y-40649781D01*
X57135155Y-40528175D01*
X57095128Y-40396224D01*
X57081613Y-40259000D01*
X57095128Y-40121776D01*
X57135155Y-39989825D01*
X57200155Y-39868219D01*
X57287630Y-39761630D01*
X57394219Y-39674155D01*
X57515825Y-39609155D01*
X57647776Y-39569128D01*
X57750610Y-39559000D01*
X57819390Y-39559000D01*
X57922224Y-39569128D01*
X57922224Y-39569128D01*
G37*
G36*
X60462224Y-39569128D02*
X60594175Y-39609155D01*
X60715781Y-39674155D01*
X60822370Y-39761630D01*
X60909845Y-39868219D01*
X60974845Y-39989825D01*
X61014872Y-40121776D01*
X61028387Y-40259000D01*
X61014872Y-40396224D01*
X60974845Y-40528175D01*
X60909845Y-40649781D01*
X60822370Y-40756370D01*
X60715781Y-40843845D01*
X60594175Y-40908845D01*
X60462224Y-40948872D01*
X60359390Y-40959000D01*
X60290610Y-40959000D01*
X60187776Y-40948872D01*
X60055825Y-40908845D01*
X59934219Y-40843845D01*
X59827630Y-40756370D01*
X59740155Y-40649781D01*
X59675155Y-40528175D01*
X59635128Y-40396224D01*
X59621613Y-40259000D01*
X59635128Y-40121776D01*
X59675155Y-39989825D01*
X59740155Y-39868219D01*
X59827630Y-39761630D01*
X59934219Y-39674155D01*
X60055825Y-39609155D01*
X60187776Y-39569128D01*
X60290610Y-39559000D01*
X60359390Y-39559000D01*
X60462224Y-39569128D01*
X60462224Y-39569128D01*
G37*
G36*
X64118518Y-37787344D02*
X64345946Y-37881548D01*
X64550625Y-38018310D01*
X64724690Y-38192375D01*
X64861452Y-38397054D01*
X64955656Y-38624482D01*
X65003680Y-38865917D01*
X65003680Y-39112083D01*
X64955656Y-39353518D01*
X64861452Y-39580946D01*
X64724690Y-39785625D01*
X64550625Y-39959690D01*
X64345946Y-40096452D01*
X64118518Y-40190656D01*
X63877083Y-40238680D01*
X63630917Y-40238680D01*
X63389482Y-40190656D01*
X63162054Y-40096452D01*
X62957375Y-39959690D01*
X62783310Y-39785625D01*
X62646548Y-39580946D01*
X62552344Y-39353518D01*
X62504320Y-39112083D01*
X62504320Y-38865917D01*
X62552344Y-38624482D01*
X62646548Y-38397054D01*
X62783310Y-38192375D01*
X62957375Y-38018310D01*
X63162054Y-37881548D01*
X63389482Y-37787344D01*
X63630917Y-37739320D01*
X63877083Y-37739320D01*
X64118518Y-37787344D01*
X64118518Y-37787344D01*
G37*
G36*
X50148518Y-37787344D02*
X50375946Y-37881548D01*
X50580625Y-38018310D01*
X50754690Y-38192375D01*
X50891452Y-38397054D01*
X50985656Y-38624482D01*
X51033680Y-38865917D01*
X51033680Y-39112083D01*
X50985656Y-39353518D01*
X50891452Y-39580946D01*
X50754690Y-39785625D01*
X50580625Y-39959690D01*
X50375946Y-40096452D01*
X50148518Y-40190656D01*
X49907083Y-40238680D01*
X49660917Y-40238680D01*
X49419482Y-40190656D01*
X49192054Y-40096452D01*
X48987375Y-39959690D01*
X48813310Y-39785625D01*
X48676548Y-39580946D01*
X48582344Y-39353518D01*
X48534320Y-39112083D01*
X48534320Y-38865917D01*
X48582344Y-38624482D01*
X48676548Y-38397054D01*
X48813310Y-38192375D01*
X48987375Y-38018310D01*
X49192054Y-37881548D01*
X49419482Y-37787344D01*
X49660917Y-37739320D01*
X49907083Y-37739320D01*
X50148518Y-37787344D01*
X50148518Y-37787344D01*
G37*
G36*
X40750518Y-37787344D02*
X40977946Y-37881548D01*
X41182625Y-38018310D01*
X41356690Y-38192375D01*
X41493452Y-38397054D01*
X41587656Y-38624482D01*
X41635680Y-38865917D01*
X41635680Y-39112083D01*
X41587656Y-39353518D01*
X41493452Y-39580946D01*
X41356690Y-39785625D01*
X41182625Y-39959690D01*
X40977946Y-40096452D01*
X40750518Y-40190656D01*
X40509083Y-40238680D01*
X40262917Y-40238680D01*
X40021482Y-40190656D01*
X39794054Y-40096452D01*
X39589375Y-39959690D01*
X39415310Y-39785625D01*
X39278548Y-39580946D01*
X39184344Y-39353518D01*
X39136320Y-39112083D01*
X39136320Y-38865917D01*
X39184344Y-38624482D01*
X39278548Y-38397054D01*
X39415310Y-38192375D01*
X39589375Y-38018310D01*
X39794054Y-37881548D01*
X40021482Y-37787344D01*
X40262917Y-37739320D01*
X40509083Y-37739320D01*
X40750518Y-37787344D01*
X40750518Y-37787344D01*
G37*
G36*
X54720518Y-37787344D02*
X54947946Y-37881548D01*
X55152625Y-38018310D01*
X55326690Y-38192375D01*
X55463452Y-38397054D01*
X55557656Y-38624482D01*
X55605680Y-38865917D01*
X55605680Y-39112083D01*
X55557656Y-39353518D01*
X55463452Y-39580946D01*
X55326690Y-39785625D01*
X55152625Y-39959690D01*
X54947946Y-40096452D01*
X54720518Y-40190656D01*
X54479083Y-40238680D01*
X54232917Y-40238680D01*
X53991482Y-40190656D01*
X53764054Y-40096452D01*
X53559375Y-39959690D01*
X53385310Y-39785625D01*
X53248548Y-39580946D01*
X53154344Y-39353518D01*
X53106320Y-39112083D01*
X53106320Y-38865917D01*
X53154344Y-38624482D01*
X53248548Y-38397054D01*
X53385310Y-38192375D01*
X53559375Y-38018310D01*
X53764054Y-37881548D01*
X53991482Y-37787344D01*
X54232917Y-37739320D01*
X54479083Y-37739320D01*
X54720518Y-37787344D01*
X54720518Y-37787344D01*
G37*
G36*
X46559183Y-37045900D02*
X46686574Y-37098668D01*
X46801225Y-37175275D01*
X46898725Y-37272775D01*
X46975332Y-37387426D01*
X47028100Y-37514817D01*
X47055000Y-37650055D01*
X47055000Y-37787945D01*
X47028100Y-37923183D01*
X46975332Y-38050574D01*
X46898725Y-38165225D01*
X46801225Y-38262725D01*
X46686574Y-38339332D01*
X46559183Y-38392100D01*
X46423945Y-38419000D01*
X46286055Y-38419000D01*
X46150817Y-38392100D01*
X46023426Y-38339332D01*
X45908775Y-38262725D01*
X45811275Y-38165225D01*
X45734668Y-38050574D01*
X45681900Y-37923183D01*
X45655000Y-37787945D01*
X45655000Y-37650055D01*
X45681900Y-37514817D01*
X45734668Y-37387426D01*
X45811275Y-37272775D01*
X45908775Y-37175275D01*
X46023426Y-37098668D01*
X46150817Y-37045900D01*
X46286055Y-37019000D01*
X46423945Y-37019000D01*
X46559183Y-37045900D01*
X46559183Y-37045900D01*
G37*
G36*
X44019183Y-37045900D02*
X44146574Y-37098668D01*
X44261225Y-37175275D01*
X44358725Y-37272775D01*
X44435332Y-37387426D01*
X44488100Y-37514817D01*
X44515000Y-37650055D01*
X44515000Y-37787945D01*
X44488100Y-37923183D01*
X44435332Y-38050574D01*
X44358725Y-38165225D01*
X44261225Y-38262725D01*
X44146574Y-38339332D01*
X44019183Y-38392100D01*
X43883945Y-38419000D01*
X43746055Y-38419000D01*
X43610817Y-38392100D01*
X43483426Y-38339332D01*
X43368775Y-38262725D01*
X43271275Y-38165225D01*
X43194668Y-38050574D01*
X43141900Y-37923183D01*
X43115000Y-37787945D01*
X43115000Y-37650055D01*
X43141900Y-37514817D01*
X43194668Y-37387426D01*
X43271275Y-37272775D01*
X43368775Y-37175275D01*
X43483426Y-37098668D01*
X43610817Y-37045900D01*
X43746055Y-37019000D01*
X43883945Y-37019000D01*
X44019183Y-37045900D01*
X44019183Y-37045900D01*
G37*
G36*
X57989183Y-37045900D02*
X58116574Y-37098668D01*
X58231225Y-37175275D01*
X58328725Y-37272775D01*
X58405332Y-37387426D01*
X58458100Y-37514817D01*
X58485000Y-37650055D01*
X58485000Y-37787945D01*
X58458100Y-37923183D01*
X58405332Y-38050574D01*
X58328725Y-38165225D01*
X58231225Y-38262725D01*
X58116574Y-38339332D01*
X57989183Y-38392100D01*
X57853945Y-38419000D01*
X57716055Y-38419000D01*
X57580817Y-38392100D01*
X57453426Y-38339332D01*
X57338775Y-38262725D01*
X57241275Y-38165225D01*
X57164668Y-38050574D01*
X57111900Y-37923183D01*
X57085000Y-37787945D01*
X57085000Y-37650055D01*
X57111900Y-37514817D01*
X57164668Y-37387426D01*
X57241275Y-37272775D01*
X57338775Y-37175275D01*
X57453426Y-37098668D01*
X57580817Y-37045900D01*
X57716055Y-37019000D01*
X57853945Y-37019000D01*
X57989183Y-37045900D01*
X57989183Y-37045900D01*
G37*
G36*
X60529183Y-37045900D02*
X60656574Y-37098668D01*
X60771225Y-37175275D01*
X60868725Y-37272775D01*
X60945332Y-37387426D01*
X60998100Y-37514817D01*
X61025000Y-37650055D01*
X61025000Y-37787945D01*
X60998100Y-37923183D01*
X60945332Y-38050574D01*
X60868725Y-38165225D01*
X60771225Y-38262725D01*
X60656574Y-38339332D01*
X60529183Y-38392100D01*
X60393945Y-38419000D01*
X60256055Y-38419000D01*
X60120817Y-38392100D01*
X59993426Y-38339332D01*
X59878775Y-38262725D01*
X59781275Y-38165225D01*
X59704668Y-38050574D01*
X59651900Y-37923183D01*
X59625000Y-37787945D01*
X59625000Y-37650055D01*
X59651900Y-37514817D01*
X59704668Y-37387426D01*
X59781275Y-37272775D01*
X59878775Y-37175275D01*
X59993426Y-37098668D01*
X60120817Y-37045900D01*
X60256055Y-37019000D01*
X60393945Y-37019000D01*
X60529183Y-37045900D01*
X60529183Y-37045900D01*
G37*
M02*
