M48
;DRILL file {KiCad 5.0.1+dfsg1-3~bpo9+1} date Sun 18 Nov 2018 10:38:25 AM MST
;FORMAT={-:-/ absolute / metric / decimal}
FMAT,2
METRIC,TZ
T1C0.700
T2C0.800
T3C1.001
%
G90
G05
M71
T1
X57.785Y-37.719
X57.785Y-40.259
X57.825Y-47.238
X60.365Y-47.238
X43.815Y-37.719
X43.815Y-40.259
X46.355Y-37.719
X46.355Y-40.259
X60.325Y-37.719
X60.325Y-40.259
X43.855Y-47.244
X46.395Y-47.244
T2
X40.322Y-43.053
X43.497Y-43.053
X46.672Y-43.053
X49.847Y-43.053
X54.31Y-43.053
X57.485Y-43.053
X60.66Y-43.053
X63.835Y-43.053
T3
X49.784Y-38.989
X54.356Y-47.244
X40.386Y-38.989
X49.784Y-47.244
X63.754Y-47.244
X40.386Y-47.244
X54.356Y-38.989
X63.754Y-38.989
T0
M30
