G04 #@! TF.GenerationSoftware,KiCad,Pcbnew,5.0.1+dfsg1-3~bpo9+1*
G04 #@! TF.CreationDate,2018-11-18T10:39:03-07:00*
G04 #@! TF.ProjectId,Cube-Balls,437562652D42616C6C732E6B69636164,rev?*
G04 #@! TF.SameCoordinates,Original*
G04 #@! TF.FileFunction,Copper,L2,Bot,Signal*
G04 #@! TF.FilePolarity,Positive*
%FSLAX46Y46*%
G04 Gerber Fmt 4.6, Leading zero omitted, Abs format (unit mm)*
G04 Created by KiCad (PCBNEW 5.0.1+dfsg1-3~bpo9+1) date Sun 18 Nov 2018 10:39:03 AM MST*
%MOMM*%
%LPD*%
G01*
G04 APERTURE LIST*
G04 #@! TA.AperFunction,ComponentPad*
%ADD10C,1.400000*%
G04 #@! TD*
G04 #@! TA.AperFunction,ComponentPad*
%ADD11O,1.400000X1.400000*%
G04 #@! TD*
G04 #@! TA.AperFunction,ComponentPad*
%ADD12C,2.499360*%
G04 #@! TD*
G04 #@! TA.AperFunction,ComponentPad*
%ADD13O,1.998980X1.998980*%
G04 #@! TD*
G04 #@! TA.AperFunction,ComponentPad*
%ADD14C,1.998980*%
G04 #@! TD*
G04 #@! TA.AperFunction,Conductor*
%ADD15C,0.762000*%
G04 #@! TD*
G04 APERTURE END LIST*
D10*
G04 #@! TO.P,C1,1*
G04 #@! TO.N,Net-(C1-Pad1)*
X43855000Y-47244000D03*
D11*
G04 #@! TO.P,C1,2*
G04 #@! TO.N,Net-(C1-Pad2)*
X46395000Y-47244000D03*
G04 #@! TD*
G04 #@! TO.P,C2,2*
G04 #@! TO.N,Net-(C2-Pad2)*
X60325000Y-40259000D03*
D10*
G04 #@! TO.P,C2,1*
G04 #@! TO.N,Net-(C2-Pad1)*
X60325000Y-37719000D03*
G04 #@! TD*
D12*
G04 #@! TO.P,J8,1*
G04 #@! TO.N,Net-(D2-Pad4)*
X63754000Y-38989000D03*
G04 #@! TD*
G04 #@! TO.P,J7,1*
G04 #@! TO.N,Net-(C2-Pad1)*
X63754000Y-47244000D03*
G04 #@! TD*
G04 #@! TO.P,J6,1*
G04 #@! TO.N,Net-(J6-Pad1)*
X54356000Y-38989000D03*
G04 #@! TD*
G04 #@! TO.P,J5,1*
G04 #@! TO.N,Net-(J5-Pad1)*
X54356000Y-47244000D03*
G04 #@! TD*
G04 #@! TO.P,J4,1*
G04 #@! TO.N,Net-(D1-Pad4)*
X40386000Y-47244000D03*
G04 #@! TD*
G04 #@! TO.P,J3,1*
G04 #@! TO.N,Net-(C1-Pad1)*
X49784000Y-47244000D03*
G04 #@! TD*
G04 #@! TO.P,J2,1*
G04 #@! TO.N,Net-(J2-Pad1)*
X40386000Y-38989000D03*
G04 #@! TD*
G04 #@! TO.P,J1,1*
G04 #@! TO.N,Net-(J1-Pad1)*
X49784000Y-38989000D03*
G04 #@! TD*
D13*
G04 #@! TO.P,D2,1*
G04 #@! TO.N,Net-(D2-Pad1)*
X54310000Y-43053000D03*
D14*
G04 #@! TO.P,D2,2*
G04 #@! TO.N,Net-(C2-Pad2)*
X57485000Y-43053000D03*
G04 #@! TO.P,D2,3*
G04 #@! TO.N,Net-(C2-Pad1)*
X60660000Y-43053000D03*
G04 #@! TO.P,D2,4*
G04 #@! TO.N,Net-(D2-Pad4)*
X63835000Y-43053000D03*
G04 #@! TD*
D13*
G04 #@! TO.P,D1,1*
G04 #@! TO.N,Net-(D1-Pad1)*
X49847500Y-43053000D03*
D14*
G04 #@! TO.P,D1,2*
G04 #@! TO.N,Net-(C1-Pad2)*
X46672500Y-43053000D03*
G04 #@! TO.P,D1,3*
G04 #@! TO.N,Net-(C1-Pad1)*
X43497500Y-43053000D03*
G04 #@! TO.P,D1,4*
G04 #@! TO.N,Net-(D1-Pad4)*
X40322500Y-43053000D03*
G04 #@! TD*
D10*
G04 #@! TO.P,R4,1*
G04 #@! TO.N,Net-(J5-Pad1)*
X57825000Y-47238000D03*
D11*
G04 #@! TO.P,R4,2*
G04 #@! TO.N,Net-(D2-Pad1)*
X60365000Y-47238000D03*
G04 #@! TD*
D10*
G04 #@! TO.P,R3,1*
G04 #@! TO.N,Net-(J6-Pad1)*
X57785000Y-37719000D03*
D11*
G04 #@! TO.P,R3,2*
G04 #@! TO.N,Net-(C2-Pad2)*
X57785000Y-40259000D03*
G04 #@! TD*
G04 #@! TO.P,R2,2*
G04 #@! TO.N,Net-(D1-Pad1)*
X46355000Y-40259000D03*
D10*
G04 #@! TO.P,R2,1*
G04 #@! TO.N,Net-(J1-Pad1)*
X46355000Y-37719000D03*
G04 #@! TD*
G04 #@! TO.P,R1,1*
G04 #@! TO.N,Net-(J2-Pad1)*
X43815000Y-37719000D03*
D11*
G04 #@! TO.P,R1,2*
G04 #@! TO.N,Net-(C1-Pad2)*
X43815000Y-40259000D03*
G04 #@! TD*
D15*
G04 #@! TO.N,Net-(J2-Pad1)*
X41656000Y-37719000D02*
X40386000Y-38989000D01*
X43815000Y-37719000D02*
X41656000Y-37719000D01*
G04 #@! TO.N,Net-(C1-Pad2)*
X46609000Y-43053000D02*
X43815000Y-40259000D01*
X46395000Y-43330500D02*
X46672500Y-43053000D01*
X46395000Y-47244000D02*
X46395000Y-43330500D01*
G04 #@! TO.N,Net-(C2-Pad2)*
X60325000Y-40259000D02*
X57785000Y-40259000D01*
X57785000Y-42753000D02*
X57485000Y-43053000D01*
X57785000Y-40259000D02*
X57785000Y-42753000D01*
G04 #@! TO.N,Net-(J6-Pad1)*
X55626000Y-37719000D02*
X54356000Y-38989000D01*
X57785000Y-37719000D02*
X55626000Y-37719000D01*
G04 #@! TO.N,Net-(J1-Pad1)*
X48514000Y-37719000D02*
X49784000Y-38989000D01*
X46355000Y-37719000D02*
X48514000Y-37719000D01*
G04 #@! TO.N,Net-(D1-Pad1)*
X47053500Y-40259000D02*
X49847500Y-43053000D01*
X46355000Y-40259000D02*
X47053500Y-40259000D01*
G04 #@! TO.N,Net-(D2-Pad1)*
X60365000Y-46248051D02*
X59328949Y-45212000D01*
X60365000Y-47238000D02*
X60365000Y-46248051D01*
X59328949Y-45212000D02*
X56469000Y-45212000D01*
X56469000Y-45212000D02*
X55626000Y-45212000D01*
X55626000Y-45212000D02*
X55372000Y-45212000D01*
X55055508Y-45212000D02*
X55626000Y-45212000D01*
X54310000Y-44466492D02*
X55055508Y-45212000D01*
X54310000Y-43053000D02*
X54310000Y-44466492D01*
G04 #@! TO.N,Net-(J5-Pad1)*
X57819000Y-47244000D02*
X57825000Y-47238000D01*
X54356000Y-47244000D02*
X57819000Y-47244000D01*
G04 #@! TO.N,Net-(C1-Pad1)*
X43855000Y-43410500D02*
X43497500Y-43053000D01*
X43855000Y-47244000D02*
X43855000Y-43410500D01*
X43855000Y-49189000D02*
X43855000Y-47244000D01*
X47752000Y-49276000D02*
X43942000Y-49276000D01*
X43942000Y-49276000D02*
X43855000Y-49189000D01*
X49784000Y-47244000D02*
X47752000Y-49276000D01*
G04 #@! TO.N,Net-(D1-Pad4)*
X40386000Y-43116500D02*
X40322500Y-43053000D01*
X40386000Y-47244000D02*
X40386000Y-43116500D01*
G04 #@! TO.N,Net-(D2-Pad4)*
X63754000Y-42972000D02*
X63835000Y-43053000D01*
X63754000Y-38989000D02*
X63754000Y-42972000D01*
G04 #@! TO.N,Net-(C2-Pad1)*
X60325000Y-37719000D02*
X61722000Y-39116000D01*
X61722000Y-41991000D02*
X60660000Y-43053000D01*
X61722000Y-39116000D02*
X61722000Y-41991000D01*
X60660000Y-44150000D02*
X63754000Y-47244000D01*
X60660000Y-43053000D02*
X60660000Y-44150000D01*
G04 #@! TD*
M02*
